<svg width="126" height="48" viewBox="0 0 126 48" fill="none" xmlns="http://www.w3.org/2000/svg">
<mask id="path-1-outside-1_4130_509" maskUnits="userSpaceOnUse" x="33" y="8" width="93" height="33" fill="black">
<rect fill="white" x="33" y="8" width="93" height="33"/>
<path d="M49 17.1818V22.8636H34.625V17.1818H49ZM37.4091 11.9545H45.25V31.983C45.25 32.286 45.3021 32.5417 45.4062 32.75C45.5104 32.9489 45.6714 33.1004 45.8892 33.2045C46.107 33.2992 46.3864 33.3466 46.7273 33.3466C46.964 33.3466 47.2386 33.3182 47.5511 33.2614C47.8731 33.2045 48.1098 33.1572 48.2614 33.1193L49.3977 38.6307C49.0473 38.7348 48.5455 38.8627 47.892 39.0142C47.2481 39.1657 46.4811 39.2652 45.5909 39.3125C43.7917 39.4072 42.2813 39.2225 41.0597 38.7585C39.8381 38.285 38.9195 37.5417 38.304 36.5284C37.6884 35.5152 37.3902 34.2462 37.4091 32.7216V11.9545ZM62.4766 39.3977C60.1091 39.3977 58.0826 38.929 56.397 37.9915C54.7114 37.0445 53.4188 35.7282 52.5192 34.0426C51.6196 32.3475 51.1697 30.3826 51.1697 28.1477C51.1697 25.9129 51.6196 23.9527 52.5192 22.267C53.4188 20.572 54.7114 19.2557 56.397 18.3182C58.0826 17.3712 60.1091 16.8977 62.4766 16.8977C64.844 16.8977 66.8705 17.3712 68.5561 18.3182C70.2417 19.2557 71.5343 20.572 72.4339 22.267C73.3336 23.9527 73.7834 25.9129 73.7834 28.1477C73.7834 30.3826 73.3336 32.3475 72.4339 34.0426C71.5343 35.7282 70.2417 37.0445 68.5561 37.9915C66.8705 38.929 64.844 39.3977 62.4766 39.3977ZM62.5334 33.6023C63.1963 33.6023 63.7692 33.3797 64.2521 32.9347C64.7351 32.4896 65.1091 31.8551 65.3743 31.0312C65.6394 30.2074 65.772 29.2273 65.772 28.0909C65.772 26.9451 65.6394 25.965 65.3743 25.1506C65.1091 24.3267 64.7351 23.6922 64.2521 23.2472C63.7692 22.8021 63.1963 22.5795 62.5334 22.5795C61.8326 22.5795 61.2313 22.8021 60.7294 23.2472C60.2275 23.6922 59.844 24.3267 59.5788 25.1506C59.3137 25.965 59.1811 26.9451 59.1811 28.0909C59.1811 29.2273 59.3137 30.2074 59.5788 31.0312C59.844 31.8551 60.2275 32.4896 60.7294 32.9347C61.2313 33.3797 61.8326 33.6023 62.5334 33.6023Z"/>
<path d="M84.8629 39.2841C83.3099 39.2841 81.88 38.8769 80.5732 38.0625C79.2758 37.2481 78.2341 36.0123 77.4482 34.3551C76.6716 32.6979 76.2834 30.6098 76.2834 28.0909C76.2834 25.4583 76.6906 23.3182 77.505 21.6705C78.3288 20.0227 79.3894 18.8153 80.6868 18.0483C81.9936 17.2812 83.3667 16.8977 84.8061 16.8977C85.8857 16.8977 86.8326 17.0871 87.647 17.4659C88.4614 17.8352 89.1432 18.3324 89.6925 18.9574C90.2417 19.5729 90.6584 20.25 90.9425 20.9886H91.0561V9.90909H98.897V39H91.1129V35.4205H90.9425C90.6394 36.1591 90.2038 36.822 89.6357 37.4091C89.0769 37.9867 88.3951 38.446 87.5902 38.7869C86.7947 39.1184 85.8857 39.2841 84.8629 39.2841ZM87.7607 33.2614C88.4804 33.2614 89.0959 33.053 89.6072 32.6364C90.1281 32.2102 90.5258 31.6136 90.8004 30.8466C91.0845 30.0701 91.2266 29.1515 91.2266 28.0909C91.2266 27.0114 91.0845 26.0881 90.8004 25.321C90.5258 24.5445 90.1281 23.9527 89.6072 23.5455C89.0959 23.1288 88.4804 22.9205 87.7607 22.9205C87.041 22.9205 86.4254 23.1288 85.9141 23.5455C85.4122 23.9527 85.0239 24.5445 84.7493 25.321C84.4841 26.0881 84.3516 27.0114 84.3516 28.0909C84.3516 29.1705 84.4841 30.0985 84.7493 30.875C85.0239 31.642 85.4122 32.2339 85.9141 32.6506C86.4254 33.0578 87.041 33.2614 87.7607 33.2614ZM113.258 39.3977C110.89 39.3977 108.864 38.929 107.178 37.9915C105.493 37.0445 104.2 35.7282 103.3 34.0426C102.401 32.3475 101.951 30.3826 101.951 28.1477C101.951 25.9129 102.401 23.9527 103.3 22.267C104.2 20.572 105.493 19.2557 107.178 18.3182C108.864 17.3712 110.89 16.8977 113.258 16.8977C115.625 16.8977 117.652 17.3712 119.337 18.3182C121.023 19.2557 122.316 20.572 123.215 22.267C124.115 23.9527 124.565 25.9129 124.565 28.1477C124.565 30.3826 124.115 32.3475 123.215 34.0426C122.316 35.7282 121.023 37.0445 119.337 37.9915C117.652 38.929 115.625 39.3977 113.258 39.3977ZM113.315 33.6023C113.978 33.6023 114.55 33.3797 115.033 32.9347C115.516 32.4896 115.89 31.8551 116.156 31.0312C116.421 30.2074 116.553 29.2273 116.553 28.0909C116.553 26.9451 116.421 25.965 116.156 25.1506C115.89 24.3267 115.516 23.6922 115.033 23.2472C114.55 22.8021 113.978 22.5795 113.315 22.5795C112.614 22.5795 112.013 22.8021 111.511 23.2472C111.009 23.6922 110.625 24.3267 110.36 25.1506C110.095 25.965 109.962 26.9451 109.962 28.0909C109.962 29.2273 110.095 30.2074 110.36 31.0312C110.625 31.8551 111.009 32.4896 111.511 32.9347C112.013 33.3797 112.614 33.6023 113.315 33.6023Z"/>
</mask>
<path d="M49 17.1818V22.8636H34.625V17.1818H49ZM37.4091 11.9545H45.25V31.983C45.25 32.286 45.3021 32.5417 45.4062 32.75C45.5104 32.9489 45.6714 33.1004 45.8892 33.2045C46.107 33.2992 46.3864 33.3466 46.7273 33.3466C46.964 33.3466 47.2386 33.3182 47.5511 33.2614C47.8731 33.2045 48.1098 33.1572 48.2614 33.1193L49.3977 38.6307C49.0473 38.7348 48.5455 38.8627 47.892 39.0142C47.2481 39.1657 46.4811 39.2652 45.5909 39.3125C43.7917 39.4072 42.2813 39.2225 41.0597 38.7585C39.8381 38.285 38.9195 37.5417 38.304 36.5284C37.6884 35.5152 37.3902 34.2462 37.4091 32.7216V11.9545ZM62.4766 39.3977C60.1091 39.3977 58.0826 38.929 56.397 37.9915C54.7114 37.0445 53.4188 35.7282 52.5192 34.0426C51.6196 32.3475 51.1697 30.3826 51.1697 28.1477C51.1697 25.9129 51.6196 23.9527 52.5192 22.267C53.4188 20.572 54.7114 19.2557 56.397 18.3182C58.0826 17.3712 60.1091 16.8977 62.4766 16.8977C64.844 16.8977 66.8705 17.3712 68.5561 18.3182C70.2417 19.2557 71.5343 20.572 72.4339 22.267C73.3336 23.9527 73.7834 25.9129 73.7834 28.1477C73.7834 30.3826 73.3336 32.3475 72.4339 34.0426C71.5343 35.7282 70.2417 37.0445 68.5561 37.9915C66.8705 38.929 64.844 39.3977 62.4766 39.3977ZM62.5334 33.6023C63.1963 33.6023 63.7692 33.3797 64.2521 32.9347C64.7351 32.4896 65.1091 31.8551 65.3743 31.0312C65.6394 30.2074 65.772 29.2273 65.772 28.0909C65.772 26.9451 65.6394 25.965 65.3743 25.1506C65.1091 24.3267 64.7351 23.6922 64.2521 23.2472C63.7692 22.8021 63.1963 22.5795 62.5334 22.5795C61.8326 22.5795 61.2313 22.8021 60.7294 23.2472C60.2275 23.6922 59.844 24.3267 59.5788 25.1506C59.3137 25.965 59.1811 26.9451 59.1811 28.0909C59.1811 29.2273 59.3137 30.2074 59.5788 31.0312C59.844 31.8551 60.2275 32.4896 60.7294 32.9347C61.2313 33.3797 61.8326 33.6023 62.5334 33.6023Z" fill="#4EA8DE"/>
<path d="M84.8629 39.2841C83.3099 39.2841 81.88 38.8769 80.5732 38.0625C79.2758 37.2481 78.2341 36.0123 77.4482 34.3551C76.6716 32.6979 76.2834 30.6098 76.2834 28.0909C76.2834 25.4583 76.6906 23.3182 77.505 21.6705C78.3288 20.0227 79.3894 18.8153 80.6868 18.0483C81.9936 17.2812 83.3667 16.8977 84.8061 16.8977C85.8857 16.8977 86.8326 17.0871 87.647 17.4659C88.4614 17.8352 89.1432 18.3324 89.6925 18.9574C90.2417 19.5729 90.6584 20.25 90.9425 20.9886H91.0561V9.90909H98.897V39H91.1129V35.4205H90.9425C90.6394 36.1591 90.2038 36.822 89.6357 37.4091C89.0769 37.9867 88.3951 38.446 87.5902 38.7869C86.7947 39.1184 85.8857 39.2841 84.8629 39.2841ZM87.7607 33.2614C88.4804 33.2614 89.0959 33.053 89.6072 32.6364C90.1281 32.2102 90.5258 31.6136 90.8004 30.8466C91.0845 30.0701 91.2266 29.1515 91.2266 28.0909C91.2266 27.0114 91.0845 26.0881 90.8004 25.321C90.5258 24.5445 90.1281 23.9527 89.6072 23.5455C89.0959 23.1288 88.4804 22.9205 87.7607 22.9205C87.041 22.9205 86.4254 23.1288 85.9141 23.5455C85.4122 23.9527 85.0239 24.5445 84.7493 25.321C84.4841 26.0881 84.3516 27.0114 84.3516 28.0909C84.3516 29.1705 84.4841 30.0985 84.7493 30.875C85.0239 31.642 85.4122 32.2339 85.9141 32.6506C86.4254 33.0578 87.041 33.2614 87.7607 33.2614ZM113.258 39.3977C110.89 39.3977 108.864 38.929 107.178 37.9915C105.493 37.0445 104.2 35.7282 103.3 34.0426C102.401 32.3475 101.951 30.3826 101.951 28.1477C101.951 25.9129 102.401 23.9527 103.3 22.267C104.2 20.572 105.493 19.2557 107.178 18.3182C108.864 17.3712 110.89 16.8977 113.258 16.8977C115.625 16.8977 117.652 17.3712 119.337 18.3182C121.023 19.2557 122.316 20.572 123.215 22.267C124.115 23.9527 124.565 25.9129 124.565 28.1477C124.565 30.3826 124.115 32.3475 123.215 34.0426C122.316 35.7282 121.023 37.0445 119.337 37.9915C117.652 38.929 115.625 39.3977 113.258 39.3977ZM113.315 33.6023C113.978 33.6023 114.55 33.3797 115.033 32.9347C115.516 32.4896 115.89 31.8551 116.156 31.0312C116.421 30.2074 116.553 29.2273 116.553 28.0909C116.553 26.9451 116.421 25.965 116.156 25.1506C115.89 24.3267 115.516 23.6922 115.033 23.2472C114.55 22.8021 113.978 22.5795 113.315 22.5795C112.614 22.5795 112.013 22.8021 111.511 23.2472C111.009 23.6922 110.625 24.3267 110.36 25.1506C110.095 25.965 109.962 26.9451 109.962 28.0909C109.962 29.2273 110.095 30.2074 110.36 31.0312C110.625 31.8551 111.009 32.4896 111.511 32.9347C112.013 33.3797 112.614 33.6023 113.315 33.6023Z" fill="#5E60CE"/>
<path d="M49 17.1818H50V16.1818H49V17.1818ZM49 22.8636V23.8636H50V22.8636H49ZM34.625 22.8636H33.625V23.8636H34.625V22.8636ZM34.625 17.1818V16.1818H33.625V17.1818H34.625ZM37.4091 11.9545V10.9545H36.4091V11.9545H37.4091ZM45.25 11.9545H46.25V10.9545H45.25V11.9545ZM45.4062 32.75L44.5118 33.1972L44.516 33.2057L44.5204 33.214L45.4062 32.75ZM45.8892 33.2045L45.4577 34.1067L45.474 34.1144L45.4905 34.1216L45.8892 33.2045ZM47.5511 33.2614L47.3773 32.2766L47.3723 32.2775L47.5511 33.2614ZM48.2614 33.1193L49.2408 32.9174L49.0302 31.8963L48.0188 32.1492L48.2614 33.1193ZM49.3977 38.6307L49.6827 39.5892L50.5625 39.3277L50.3771 38.4287L49.3977 38.6307ZM47.892 39.0142L47.6662 38.04L47.663 38.0408L47.892 39.0142ZM45.5909 39.3125L45.6435 40.3111L45.644 40.3111L45.5909 39.3125ZM41.0597 38.7585L40.6983 39.691L40.7046 39.6934L41.0597 38.7585ZM38.304 36.5284L37.4493 37.0476L37.4493 37.0476L38.304 36.5284ZM37.4091 32.7216L38.4091 32.734V32.7216H37.4091ZM48 17.1818V22.8636H50V17.1818H48ZM49 21.8636H34.625V23.8636H49V21.8636ZM35.625 22.8636V17.1818H33.625V22.8636H35.625ZM34.625 18.1818H49V16.1818H34.625V18.1818ZM37.4091 12.9545H45.25V10.9545H37.4091V12.9545ZM44.25 11.9545V31.983H46.25V11.9545H44.25ZM44.25 31.983C44.25 32.3962 44.3206 32.8147 44.5118 33.1972L46.3007 32.3028C46.2836 32.2687 46.25 32.1758 46.25 31.983H44.25ZM44.5204 33.214C44.7325 33.6189 45.0608 33.9168 45.4577 34.1067L46.3207 32.3024C46.2963 32.2908 46.2892 32.2834 46.2905 32.2846C46.2907 32.2848 46.2916 32.2857 46.2924 32.2868C46.2933 32.2879 46.2931 32.2879 46.2921 32.286L44.5204 33.214ZM45.4905 34.1216C45.8764 34.2894 46.3043 34.3466 46.7273 34.3466V32.3466C46.4684 32.3466 46.3377 32.3091 46.2879 32.2875L45.4905 34.1216ZM46.7273 34.3466C47.0403 34.3466 47.3771 34.3094 47.73 34.2452L47.3723 32.2775C47.1002 32.327 46.8877 32.3466 46.7273 32.3466V34.3466ZM47.7249 34.2461C48.0508 34.1886 48.3164 34.1363 48.5039 34.0895L48.0188 32.1492C47.9033 32.1781 47.6955 32.2204 47.3774 32.2766L47.7249 34.2461ZM47.282 33.3213L48.4183 38.8326L50.3771 38.4287L49.2408 32.9174L47.282 33.3213ZM49.1128 37.6721C48.7917 37.7676 48.3131 37.89 47.6662 38.0401L48.1179 39.9884C48.7778 39.8354 49.303 39.7021 49.6827 39.5892L49.1128 37.6721ZM47.663 38.0408C47.0928 38.175 46.3876 38.2687 45.5378 38.3139L45.644 40.3111C46.5745 40.2616 47.4034 40.1565 48.1211 39.9876L47.663 38.0408ZM45.5384 38.3139C43.8287 38.4039 42.467 38.2234 41.4148 37.8237L40.7046 39.6934C42.0955 40.2217 43.7547 40.4105 45.6435 40.3111L45.5384 38.3139ZM41.4211 37.8261C40.3821 37.4234 39.6477 36.8143 39.1586 36.0092L37.4493 37.0476C38.1913 38.2691 39.294 39.1467 40.6983 39.6909L41.4211 37.8261ZM39.1586 36.0092C38.6646 35.1959 38.3917 34.1242 38.409 32.734L36.4092 32.7092C36.3886 34.3683 36.7123 35.8344 37.4493 37.0476L39.1586 36.0092ZM38.4091 32.7216V11.9545H36.4091V32.7216H38.4091ZM56.397 37.9915L55.9072 38.8633L55.911 38.8654L56.397 37.9915ZM52.5192 34.0426L51.6359 34.5114L51.637 34.5135L52.5192 34.0426ZM52.5192 22.267L53.4014 22.7379L53.4025 22.7358L52.5192 22.267ZM56.397 18.3182L56.8831 19.1921L56.8868 19.19L56.397 18.3182ZM68.5561 18.3182L68.0663 19.19L68.07 19.1921L68.5561 18.3182ZM72.4339 22.267L71.5506 22.7358L71.5517 22.7379L72.4339 22.267ZM72.4339 34.0426L73.3162 34.5135L73.3173 34.5114L72.4339 34.0426ZM68.5561 37.9915L69.0422 38.8654L69.0459 38.8633L68.5561 37.9915ZM64.2521 32.9347L64.9298 33.67L64.9298 33.67L64.2521 32.9347ZM65.3743 31.0312L66.3262 31.3376L66.3262 31.3376L65.3743 31.0312ZM65.3743 25.1506L64.4224 25.4569L64.4234 25.4602L65.3743 25.1506ZM64.2521 23.2472L64.9298 22.5118L64.9298 22.5118L64.2521 23.2472ZM59.5788 25.1506L60.5297 25.4602L60.5308 25.4569L59.5788 25.1506ZM59.5788 31.0312L60.5308 30.7249L60.5308 30.7249L59.5788 31.0312ZM62.4766 38.3977C60.2409 38.3977 58.3898 37.9555 56.8831 37.1176L55.911 38.8654C57.7755 39.9024 59.9774 40.3977 62.4766 40.3977V38.3977ZM56.8868 37.1196C55.3655 36.265 54.21 35.0869 53.4014 33.5718L51.637 34.5135C52.6276 36.3696 54.0573 37.824 55.9072 38.8633L56.8868 37.1196ZM53.4025 33.5738C52.5912 32.0452 52.1697 30.2461 52.1697 28.1477H50.1697C50.1697 30.519 50.6479 32.6499 51.6359 34.5114L53.4025 33.5738ZM52.1697 28.1477C52.1697 26.0492 52.5913 24.2558 53.4014 22.7379L51.637 21.7962C50.6478 23.6495 50.1697 25.7766 50.1697 28.1477H52.1697ZM53.4025 22.7358C54.2111 21.2122 55.3653 20.0363 56.8831 19.1921L55.911 17.4443C54.0575 18.4751 52.6265 19.9317 51.6359 21.7983L53.4025 22.7358ZM56.8868 19.19C58.3927 18.344 60.2425 17.8977 62.4766 17.8977V15.8977C59.9758 15.8977 57.7725 16.3984 55.9072 17.4463L56.8868 19.19ZM62.4766 17.8977C64.7106 17.8977 66.5604 18.344 68.0663 19.19L69.0459 17.4463C67.1806 16.3984 64.9773 15.8977 62.4766 15.8977V17.8977ZM68.07 19.1921C69.5878 20.0363 70.742 21.2122 71.5506 22.7358L73.3173 21.7983C72.3266 19.9317 70.8956 18.4751 69.0422 17.4443L68.07 19.1921ZM71.5517 22.7379C72.3619 24.2558 72.7834 26.0492 72.7834 28.1477H74.7834C74.7834 25.7766 74.3053 23.6495 73.3162 21.7962L71.5517 22.7379ZM72.7834 28.1477C72.7834 30.2461 72.3619 32.0452 71.5506 33.5738L73.3173 34.5114C74.3052 32.6499 74.7834 30.519 74.7834 28.1477H72.7834ZM71.5517 33.5718C70.7431 35.0869 69.5876 36.265 68.0663 37.1196L69.0459 38.8633C70.8958 37.824 72.3256 36.3696 73.3162 34.5135L71.5517 33.5718ZM68.07 37.1176C66.5633 37.9555 64.7122 38.3977 62.4766 38.3977V40.3977C64.9758 40.3977 67.1777 39.9024 69.0422 38.8654L68.07 37.1176ZM62.5334 34.6023C63.4448 34.6023 64.2603 34.287 64.9298 33.67L63.5745 32.1993C63.2781 32.4725 62.9477 32.6023 62.5334 32.6023V34.6023ZM64.9298 33.67C65.5737 33.0766 66.0245 32.2752 66.3262 31.3376L64.4224 30.7249C64.1938 31.4351 63.8964 31.9026 63.5744 32.1993L64.9298 33.67ZM66.3262 31.3376C66.6314 30.3893 66.772 29.3007 66.772 28.0909H64.772C64.772 29.1539 64.6475 30.0255 64.4224 30.7249L66.3262 31.3376ZM66.772 28.0909C66.772 26.8731 66.6318 25.7827 66.3252 24.841L64.4234 25.4602C64.6471 26.1473 64.772 27.017 64.772 28.0909H66.772ZM66.3262 24.8442C66.0245 23.9067 65.5737 23.1052 64.9298 22.5118L63.5744 23.9825C63.8964 24.2793 64.1938 24.7467 64.4224 25.4569L66.3262 24.8442ZM64.9298 22.5118C64.2603 21.8948 63.4448 21.5795 62.5334 21.5795V23.5795C62.9477 23.5795 63.2781 23.7094 63.5745 23.9825L64.9298 22.5118ZM62.5334 21.5795C61.6001 21.5795 60.7595 21.8839 60.0659 22.499L61.3929 23.9953C61.7031 23.7203 62.0652 23.5795 62.5334 23.5795V21.5795ZM60.0659 22.499C59.3965 23.0926 58.9313 23.8984 58.6269 24.8442L60.5308 25.4569C60.7566 24.755 61.0585 24.2919 61.3929 23.9953L60.0659 22.499ZM58.628 24.841C58.3214 25.7827 58.1811 26.8731 58.1811 28.0909H60.1811C60.1811 27.017 60.306 26.1473 60.5297 25.4602L58.628 24.841ZM58.1811 28.0909C58.1811 29.3007 58.3217 30.3893 58.6269 31.3376L60.5308 30.7249C60.3056 30.0255 60.1811 29.1539 60.1811 28.0909H58.1811ZM58.6269 31.3376C58.9313 32.2835 59.3965 33.0892 60.0659 33.6828L61.3929 32.1865C61.0585 31.8899 60.7566 31.4268 60.5308 30.7249L58.6269 31.3376ZM60.0659 33.6828C60.7595 34.2979 61.6001 34.6023 62.5334 34.6023V32.6023C62.0652 32.6023 61.7031 32.4616 61.3929 32.1865L60.0659 33.6828ZM80.5732 38.0625L80.0415 38.9095L80.0443 38.9112L80.5732 38.0625ZM77.4482 34.3551L76.5426 34.7794L76.5446 34.7836L77.4482 34.3551ZM77.505 21.6705L76.6105 21.2232L76.6085 21.2274L77.505 21.6705ZM80.6868 18.0483L80.1806 17.1859L80.1778 17.1875L80.6868 18.0483ZM87.647 17.4659L87.2253 18.3727L87.234 18.3766L87.647 17.4659ZM89.6925 18.9574L88.9413 19.6175L88.9463 19.6232L89.6925 18.9574ZM90.9425 20.9886L90.0091 21.3476L90.2557 21.9886H90.9425V20.9886ZM91.0561 20.9886V21.9886H92.0561V20.9886H91.0561ZM91.0561 9.90909V8.90909H90.0561V9.90909H91.0561ZM98.897 9.90909H99.897V8.90909H98.897V9.90909ZM98.897 39V40H99.897V39H98.897ZM91.1129 39H90.1129V40H91.1129V39ZM91.1129 35.4205H92.1129V34.4205H91.1129V35.4205ZM90.9425 35.4205V34.4205H90.2718L90.0173 35.0409L90.9425 35.4205ZM89.6357 37.4091L88.9171 36.7137L88.9169 36.7139L89.6357 37.4091ZM87.5902 38.7869L87.9748 39.71L87.9802 39.7077L87.5902 38.7869ZM89.6072 32.6364L90.2389 33.4116L90.2405 33.4103L89.6072 32.6364ZM90.8004 30.8466L89.8613 30.503L89.8589 30.5095L90.8004 30.8466ZM90.8004 25.321L89.8576 25.6544L89.8601 25.6614L89.8627 25.6683L90.8004 25.321ZM89.6072 23.5455L88.9756 24.3207L88.9834 24.3271L88.9913 24.3333L89.6072 23.5455ZM85.9141 23.5455L86.5441 24.322L86.5457 24.3207L85.9141 23.5455ZM84.7493 25.321L83.8065 24.9876L83.8042 24.9943L84.7493 25.321ZM84.7493 30.875L83.8029 31.1981L83.8053 31.2051L83.8078 31.2121L84.7493 30.875ZM85.9141 32.6506L85.2753 33.42L85.2832 33.4265L85.2911 33.4328L85.9141 32.6506ZM84.8629 38.2841C83.4952 38.2841 82.2487 37.9284 81.102 37.2138L80.0443 38.9112C81.5112 39.8254 83.1246 40.2841 84.8629 40.2841V38.2841ZM81.1048 37.2155C79.9981 36.5208 79.0724 35.4461 78.3517 33.9266L76.5446 34.7836C77.3959 36.5785 78.5535 37.9754 80.0415 38.9095L81.1048 37.2155ZM78.3537 33.9308C77.6582 32.4466 77.2834 30.5152 77.2834 28.0909H75.2834C75.2834 30.7045 75.6851 32.9493 76.5426 34.7794L78.3537 33.9308ZM77.2834 28.0909C77.2834 25.5502 77.6781 23.5771 78.4015 22.1135L76.6085 21.2274C75.7031 23.0593 75.2834 25.3665 75.2834 28.0909H77.2834ZM78.3994 22.1177C79.1565 20.6035 80.0975 19.5584 81.1957 18.9091L80.1778 17.1875C78.6814 18.0723 77.5012 19.4419 76.6105 21.2232L78.3994 22.1177ZM81.193 18.9107C82.3548 18.2288 83.5542 17.8977 84.8061 17.8977V15.8977C83.1792 15.8977 81.6325 16.3337 80.1806 17.1859L81.193 18.9107ZM84.8061 17.8977C85.7689 17.8977 86.567 18.0664 87.2253 18.3726L88.0687 16.5592C87.0983 16.1078 86.0024 15.8977 84.8061 15.8977V17.8977ZM87.234 18.3766C87.929 18.6918 88.4926 19.1069 88.9413 19.6175L90.4436 18.2973C89.7939 17.5579 88.9938 16.9787 88.06 16.5552L87.234 18.3766ZM88.9463 19.6232C89.4186 20.1525 89.7702 20.7265 90.0091 21.3476L91.8758 20.6297C91.5465 19.7735 91.0648 18.9934 90.4386 18.2916L88.9463 19.6232ZM90.9425 21.9886H91.0561V19.9886H90.9425V21.9886ZM92.0561 20.9886V9.90909H90.0561V20.9886H92.0561ZM91.0561 10.9091H98.897V8.90909H91.0561V10.9091ZM97.897 9.90909V39H99.897V9.90909H97.897ZM98.897 38H91.1129V40H98.897V38ZM92.1129 39V35.4205H90.1129V39H92.1129ZM91.1129 34.4205H90.9425V36.4205H91.1129V34.4205ZM90.0173 35.0409C89.7636 35.6593 89.3991 36.2156 88.9171 36.7137L90.3543 38.1045C91.0086 37.4283 91.5153 36.6589 91.8676 35.8L90.0173 35.0409ZM88.9169 36.7139C88.4594 37.1868 87.8924 37.5729 87.2002 37.8661L87.9802 39.7077C88.8978 39.3191 89.6945 38.7867 90.3544 38.1043L88.9169 36.7139ZM87.2056 37.8639C86.5525 38.136 85.7778 38.2841 84.8629 38.2841V40.2841C85.9935 40.2841 87.037 40.1008 87.9748 39.71L87.2056 37.8639ZM87.7607 34.2614C88.6881 34.2614 89.5325 33.9872 90.2389 33.4116L88.9756 31.8611C88.6593 32.1189 88.2726 32.2614 87.7607 32.2614V34.2614ZM90.2405 33.4103C90.9288 32.8472 91.419 32.0855 91.7419 31.1837L89.8589 30.5095C89.6326 31.1417 89.3274 31.5733 88.974 31.8624L90.2405 33.4103ZM91.7395 31.1902C92.0735 30.2774 92.2266 29.2372 92.2266 28.0909H90.2266C90.2266 29.0659 90.0955 29.8627 89.8613 30.503L91.7395 31.1902ZM92.2266 28.0909C92.2266 26.9286 92.0743 25.8811 91.7382 24.9737L89.8627 25.6683C90.0948 26.295 90.2266 27.0941 90.2266 28.0909H92.2266ZM91.7432 24.9876C91.4207 24.0756 90.927 23.3079 90.2232 22.7576L88.9913 24.3333C89.3292 24.5974 89.6309 25.0134 89.8576 25.6544L91.7432 24.9876ZM90.2389 22.7702C89.5325 22.1946 88.6881 21.9205 87.7607 21.9205V23.9205C88.2726 23.9205 88.6593 24.063 88.9756 24.3207L90.2389 22.7702ZM87.7607 21.9205C86.8332 21.9205 85.9888 22.1946 85.2824 22.7702L86.5457 24.3207C86.862 24.063 87.2487 23.9205 87.7607 23.9205V21.9205ZM85.284 22.7689C84.6047 23.32 84.1259 24.0844 83.8065 24.9876L85.6921 25.6544C85.9219 25.0046 86.2196 24.5853 86.5441 24.322L85.284 22.7689ZM83.8042 24.9943C83.4929 25.8947 83.3516 26.9346 83.3516 28.0909H85.3516C85.3516 27.0881 85.4754 26.2814 85.6944 25.6477L83.8042 24.9943ZM83.3516 28.0909C83.3516 29.2477 83.4931 30.2906 83.8029 31.1981L85.6956 30.5519C85.4752 29.9063 85.3516 29.0932 85.3516 28.0909H83.3516ZM83.8078 31.2121C84.1279 32.1062 84.6052 32.8637 85.2753 33.42L86.5528 31.8812C86.2191 31.6041 85.9199 31.1779 85.6908 30.5379L83.8078 31.2121ZM85.2911 33.4328C85.9976 33.9954 86.839 34.2614 87.7607 34.2614V32.2614C87.243 32.2614 86.8532 32.1201 86.537 31.8683L85.2911 33.4328ZM107.178 37.9915L106.688 38.8633L106.692 38.8654L107.178 37.9915ZM103.3 34.0426L102.417 34.5114L102.418 34.5135L103.3 34.0426ZM103.3 22.267L104.183 22.7379L104.184 22.7358L103.3 22.267ZM107.178 18.3182L107.664 19.1921L107.668 19.19L107.178 18.3182ZM119.337 18.3182L118.848 19.19L118.851 19.1921L119.337 18.3182ZM123.215 22.267L122.332 22.7358L122.333 22.7379L123.215 22.267ZM123.215 34.0426L124.097 34.5135L124.099 34.5114L123.215 34.0426ZM119.337 37.9915L119.823 38.8654L119.827 38.8633L119.337 37.9915ZM115.033 32.9347L115.711 33.67L115.711 33.67L115.033 32.9347ZM116.156 31.0312L117.107 31.3376L117.107 31.3376L116.156 31.0312ZM116.156 25.1506L115.204 25.4569L115.205 25.4602L116.156 25.1506ZM115.033 23.2472L115.711 22.5118L115.711 22.5118L115.033 23.2472ZM110.36 25.1506L111.311 25.4602L111.312 25.4569L110.36 25.1506ZM110.36 31.0312L111.312 30.7249L111.312 30.7249L110.36 31.0312ZM113.258 38.3977C111.022 38.3977 109.171 37.9555 107.664 37.1176L106.692 38.8654C108.557 39.9024 110.759 40.3977 113.258 40.3977V38.3977ZM107.668 37.1196C106.147 36.265 104.991 35.0869 104.183 33.5718L102.418 34.5135C103.409 36.3696 104.839 37.824 106.688 38.8633L107.668 37.1196ZM104.184 33.5738C103.372 32.0452 102.951 30.2461 102.951 28.1477H100.951C100.951 30.519 101.429 32.6499 102.417 34.5114L104.184 33.5738ZM102.951 28.1477C102.951 26.0492 103.373 24.2558 104.183 22.7379L102.418 21.7962C101.429 23.6495 100.951 25.7766 100.951 28.1477H102.951ZM104.184 22.7358C104.992 21.2122 106.147 20.0363 107.664 19.1921L106.692 17.4443C104.839 18.4751 103.408 19.9317 102.417 21.7983L104.184 22.7358ZM107.668 19.19C109.174 18.344 111.024 17.8977 113.258 17.8977V15.8977C110.757 15.8977 108.554 16.3984 106.688 17.4463L107.668 19.19ZM113.258 17.8977C115.492 17.8977 117.342 18.344 118.848 19.19L119.827 17.4463C117.962 16.3984 115.759 15.8977 113.258 15.8977V17.8977ZM118.851 19.1921C120.369 20.0363 121.523 21.2122 122.332 22.7358L124.099 21.7983C123.108 19.9317 121.677 18.4751 119.823 17.4443L118.851 19.1921ZM122.333 22.7379C123.143 24.2558 123.565 26.0492 123.565 28.1477H125.565C125.565 25.7766 125.087 23.6495 124.097 21.7962L122.333 22.7379ZM123.565 28.1477C123.565 30.2461 123.143 32.0452 122.332 33.5738L124.099 34.5114C125.086 32.6499 125.565 30.519 125.565 28.1477H123.565ZM122.333 33.5718C121.524 35.0869 120.369 36.265 118.848 37.1196L119.827 38.8633C121.677 37.824 123.107 36.3696 124.097 34.5135L122.333 33.5718ZM118.851 37.1176C117.345 37.9555 115.493 38.3977 113.258 38.3977V40.3977C115.757 40.3977 117.959 39.9024 119.823 38.8654L118.851 37.1176ZM113.315 34.6023C114.226 34.6023 115.042 34.287 115.711 33.67L114.356 32.1993C114.059 32.4725 113.729 32.6023 113.315 32.6023V34.6023ZM115.711 33.67C116.355 33.0766 116.806 32.2752 117.107 31.3376L115.204 30.7249C114.975 31.4351 114.678 31.9026 114.356 32.1993L115.711 33.67ZM117.107 31.3376C117.413 30.3893 117.553 29.3007 117.553 28.0909H115.553C115.553 29.1539 115.429 30.0255 115.204 30.7249L117.107 31.3376ZM117.553 28.0909C117.553 26.8731 117.413 25.7827 117.106 24.841L115.205 25.4602C115.428 26.1473 115.553 27.017 115.553 28.0909H117.553ZM117.107 24.8442C116.806 23.9067 116.355 23.1052 115.711 22.5118L114.356 23.9825C114.678 24.2793 114.975 24.7467 115.204 25.4569L117.107 24.8442ZM115.711 22.5118C115.042 21.8948 114.226 21.5795 113.315 21.5795V23.5795C113.729 23.5795 114.059 23.7094 114.356 23.9825L115.711 22.5118ZM113.315 21.5795C112.381 21.5795 111.541 21.8839 110.847 22.499L112.174 23.9953C112.484 23.7203 112.846 23.5795 113.315 23.5795V21.5795ZM110.847 22.499C110.178 23.0926 109.713 23.8984 109.408 24.8442L111.312 25.4569C111.538 24.755 111.84 24.2919 112.174 23.9953L110.847 22.499ZM109.409 24.841C109.103 25.7827 108.962 26.8731 108.962 28.0909H110.962C110.962 27.017 111.087 26.1473 111.311 25.4602L109.409 24.841ZM108.962 28.0909C108.962 29.3007 109.103 30.3893 109.408 31.3376L111.312 30.7249C111.087 30.0255 110.962 29.1539 110.962 28.0909H108.962ZM109.408 31.3376C109.713 32.2835 110.178 33.0892 110.847 33.6828L112.174 32.1865C111.84 31.8899 111.538 31.4268 111.312 30.7249L109.408 31.3376ZM110.847 33.6828C111.541 34.2979 112.381 34.6023 113.315 34.6023V32.6023C112.846 32.6023 112.484 32.4616 112.174 32.1865L110.847 33.6828Z" fill="black" mask="url(#path-1-outside-1_4130_509)"/>
<g clip-path="url(#clip0_4130_509)">
<path d="M11.0215 12.933C14.1472 16.9011 15.8158 21.7944 15.7553 26.8155V28.0141L16.7865 28.6416C18.119 29.4482 19.1127 30.6993 19.5866 32.1669C19.1705 31.8605 18.7352 31.5803 18.2833 31.3278L15.5333 29.7838L15.0391 32.9001C14.9963 33.1755 14.9389 33.4485 14.8672 33.718H7.16151C7.04692 33.3655 6.95382 33.0129 6.86789 32.6463L6.24484 29.8261L3.70968 31.2362C3.28615 31.473 2.87723 31.7344 2.48507 32.0188C2.96824 30.5682 3.94123 29.3242 5.24224 28.4935L6.22336 27.866V26.7521C6.24106 21.7513 7.92967 16.8952 11.0287 12.933H11.0215ZM11.0287 10C10.868 10.0004 10.7128 10.058 10.5918 10.1622L10.5274 10.2186C6.39778 14.7656 4.10466 20.6454 4.08208 26.745C2.32967 27.8643 1.03251 29.5543 0.417263 31.5197C-0.197979 33.485 -0.0921719 35.6007 0.716194 37.4971C1.56776 35.6455 2.99131 34.1058 4.7839 33.0975C4.96368 33.8642 5.2031 34.6161 5.50005 35.3467C5.53771 35.4871 5.62118 35.6114 5.73763 35.7006C5.85408 35.7898 5.99706 35.8388 6.14458 35.8402H16.0847C16.2852 35.8402 16.4857 35.6498 16.586 35.3537C16.8758 34.6592 17.0778 33.9322 17.1875 33.1892C18.9836 34.1932 20.4083 35.7342 21.2553 37.5887C22.1124 35.7017 22.2451 33.5727 21.6287 31.5967C21.0124 29.6206 19.6888 27.9319 17.9037 26.8437C17.9745 20.7082 15.6935 14.7718 11.5157 10.2186C11.4535 10.1501 11.3773 10.0952 11.2922 10.0576C11.2071 10.0199 11.1149 10.0003 11.0215 10H11.0287Z" fill="#4EA8DE"/>
<path d="M11.0216 26.1598C10.4715 26.1598 9.93376 25.9995 9.47611 25.699C9.01846 25.3986 8.6614 24.9715 8.44993 24.4716C8.23847 23.9716 8.18206 23.4213 8.28782 22.8898C8.39358 22.3584 8.65678 21.8697 9.04423 21.4853C9.43169 21.1009 9.92606 20.838 10.465 20.7298C11.004 20.6216 11.5634 20.6729 12.0728 20.8773C12.5822 21.0816 13.0188 21.4298 13.3275 21.8781C13.6361 22.3263 13.8031 22.8545 13.8074 23.396C13.8159 23.7469 13.7542 24.0961 13.6256 24.4235C13.4971 24.751 13.3043 25.0503 13.0582 25.3043C12.8121 25.5583 12.5176 25.7622 12.1915 25.9041C11.8654 26.0461 11.5141 26.1234 11.1576 26.1316C11.1126 26.1387 11.0666 26.1387 11.0216 26.1316V26.1598Z" fill="#4EA8DE"/>
<path d="M14.8959 37.5958C14.7167 37.5901 14.5382 37.6198 14.3708 37.683C14.2034 37.7462 14.0505 37.8416 13.9211 37.9638C13.7917 38.086 13.6884 38.2323 13.6172 38.3943C13.546 38.5563 13.5084 38.7307 13.5066 38.9072V43.067C13.5066 43.4297 13.653 43.7776 13.9135 44.0342C14.1741 44.2907 14.5274 44.4348 14.8959 44.4348C15.2644 44.4348 15.6178 44.2907 15.8783 44.0342C16.1389 43.7776 16.2852 43.4297 16.2852 43.067V38.9636C16.291 38.7877 16.2611 38.6126 16.1973 38.4482C16.1336 38.2839 16.0372 38.1337 15.9139 38.0064C15.7906 37.879 15.6428 37.7772 15.4791 37.7067C15.3154 37.6362 15.139 37.5985 14.9604 37.5958H14.8959Z" fill="#5E60CE"/>
<path d="M7.16154 37.5957C6.97931 37.5863 6.797 37.6129 6.62546 37.6742C6.45392 37.7355 6.29665 37.8302 6.16302 37.9525C6.02939 38.0749 5.92213 38.2224 5.84761 38.3864C5.77309 38.5504 5.73284 38.7275 5.72925 38.9071V43.067C5.72925 43.4297 5.87562 43.7776 6.13617 44.0341C6.39672 44.2906 6.7501 44.4348 7.11857 44.4348C7.48704 44.4348 7.84042 44.2906 8.10097 44.0341C8.36152 43.7776 8.50789 43.4297 8.50789 43.067V38.9635C8.51362 38.7877 8.48373 38.6125 8.41998 38.4482C8.35623 38.2838 8.25989 38.1336 8.13658 38.0063C8.01326 37.879 7.86544 37.7771 7.70173 37.7067C7.53802 37.6362 7.36169 37.5985 7.18302 37.5957H7.16154Z" fill="#5E60CE"/>
<path d="M10.9213 37.5958C10.7426 37.592 10.5649 37.623 10.3984 37.6869C10.2318 37.7507 10.0797 37.8463 9.95068 37.9681C9.82167 38.0899 9.71828 38.2355 9.64644 38.3966C9.5746 38.5577 9.5357 38.7312 9.53198 38.9072V44.6392C9.53198 45.002 9.67836 45.3499 9.93891 45.6064C10.1995 45.8629 10.5528 46.007 10.9213 46.007C11.2898 46.007 11.6432 45.8629 11.9037 45.6064C12.1643 45.3499 12.3106 45.002 12.3106 44.6392V38.9988C12.3164 38.823 12.2865 38.6478 12.2227 38.4835C12.159 38.3191 12.0626 38.1689 11.9393 38.0416C11.816 37.9143 11.6682 37.8124 11.5045 37.7419C11.3408 37.6714 11.1644 37.6337 10.9858 37.631L10.9213 37.5958Z" fill="#5E60CE"/>
</g>
<rect x="0.5" y="10.5" width="21" height="35" stroke="black"/>
<defs>
<clipPath id="clip0_4130_509">
<rect y="10" width="22" height="36" fill="white"/>
</clipPath>
</defs>
</svg>
